<?xml version="1.0" encoding="utf-8"?>
<!-- Generator: Adobe Illustrator 24.3.0, SVG Export Plug-In . SVG Version: 6.00 Build 0)  -->
<svg version="1.1" id="Layer_1" xmlns="http://www.w3.org/2000/svg" xmlns:xlink="http://www.w3.org/1999/xlink" x="0px" y="0px" viewBox="0 0 564 120.3" style="enable-background:new 0 0 564 120.3;" xml:space="preserve">
  <rect y="-4.6" fill="#57BD91" width="565" height="129.5"/>
  <polygon opacity="0.29" fill="#FFFFFF" style="enable-background: new;" points="62.5,7.7 56.3,34.6 82.9,95.6 90.4,49.9 78.7,20.6 "/>
  <polygon opacity="0.29" fill="#FFFFFF" style="enable-background: new;" points="122.5,7.8 116.3,34.7 142.9,95.7 153,35 138.7,20.7 "/>
  <path fill="#FFFFFF" d="M133.4,114.7l-0.2,0.2c-5.7,5-11.5,5.1-17.8,0.3c-4.5-3.4-7-8-9-12.5C100.9,90,96,77.3,90.6,64.7
    c-0.4-0.9-0.8-1.8-1.2-2.8l0,0c-6-14.2-10.8-28.7-18.5-42.5c-1.8-3.3-4-6.3-6.6-8.9c-1.2-1.2-2-2-2-2.6l0,0c0-0.7,1-1.2,3.3-2
    c6.5-2.5,13.8-3.3,23-2.5c13.9,0.6,21.9,8.5,26.5,19.2c6.2,14.2,11.8,28.5,17.8,42.7c0.9,2.2,4,9.4,7.6,17.7
    C145.4,94.1,142.8,106.3,133.4,114.7z"/>
  <path fill="#FFFFFF" d="M82.1,101.1c-1.5,5.2-4.5,9.9-8.6,13.4l-0.2,0.2c-5.7,5-11.5,5.1-17.8,0.3c-4.5-3.4-7-8-9-12.5
    c-5.5-12.7-10.3-25.4-15.7-38C24.3,49.4,19.3,34,11.1,19.3c-1.8-3.3-4-6.3-6.6-8.9c-2.9-2.9-2.8-3,1.4-4.6c6.5-2.5,13.8-3.3,23-2.5
    c13.9,0.6,21.9,8.5,26.5,19.2c1.5,3.5,3,7,4.5,10.5c4.4,10.7,8.8,21.5,13.2,32.2c0.9,2.2,4,9.4,7.6,17.7
    C83.3,88.6,83.8,95,82.1,101.1z"/>
  <path fill="#FFD800" d="M122.7,8.9c-0.4-0.3-0.4-0.9-0.1-1.2c0.1-0.1,0.1-0.1,0.2-0.2c3.3-1.9,12.9-6.1,22.5-3.6
    c10,2.4,16.5,12,15,22.1c-1.3,8-8.9,13.1-15.4,12.4s-11.6-5-13.9-12.1C129,20.1,125.6,11.4,122.7,8.9z"/>
  <g>
    <g style="enable-background: new;">
      <path fill="#FFFFFF" d="M176,26.7h10.4c1.1,0,1.9,0.2,2.7,0.8c0.7,0.5,1.2,1.2,1.5,2l11.3,40c0.2,1,0.6,2,0.8,3.2
        c0.2,1.1,0.5,2.4,0.7,3.6c0.2-1.2,0.6-2.5,0.8-3.6c0.3-1.1,0.6-2.3,0.9-3.2l13.2-40c0.2-0.7,0.7-1.4,1.5-1.9
        c0.7-0.6,1.6-0.9,2.6-0.9h3.6c1.1,0,1.9,0.2,2.7,0.8c0.7,0.5,1.2,1.2,1.5,2l13,40c0.7,1.9,1.2,4.2,1.8,6.6
        c0.2-1.2,0.5-2.4,0.7-3.5c0.2-1.1,0.5-2.2,0.7-3.1l11.5-40c0.2-0.8,0.7-1.5,1.5-2c0.8-0.6,1.6-0.8,2.7-0.8h9.8l-20.8,66.9h-11.3
        l-14.6-45.7c-0.2-0.6-0.3-1.2-0.6-1.9c-0.2-0.7-0.3-1.4-0.6-2.2c-0.2,0.8-0.3,1.5-0.6,2.2c-0.2,0.7-0.3,1.4-0.6,1.9l-14.7,45.7
        h-11.2L176,26.7z"/>
    </g>
    <g style="enable-background: new;">
      <path fill="#FFFFFF" d="M296.9,45.4c3.5,0,6.8,0.6,9.6,1.7c2.8,1.1,5.3,2.7,7.4,4.9c2,2.2,3.6,4.7,4.8,7.7c1.1,3.1,1.7,6.4,1.7,10.1
        c0,3.7-0.6,7.1-1.7,10.2c-1.1,3.1-2.7,5.6-4.8,7.7c-2,2.2-4.5,3.7-7.4,4.9c-2.8,1.1-6.1,1.7-9.6,1.7s-6.8-0.6-9.6-1.7
        c-2.9-1.1-5.3-2.7-7.5-4.9c-2-2.2-3.6-4.8-4.8-7.7c-1.1-3.1-1.7-6.5-1.7-10.2c0-3.7,0.6-7.1,1.7-10.1c1.1-3.1,2.7-5.6,4.8-7.7
        c2-2.2,4.5-3.7,7.5-4.9C290.1,46,293.3,45.4,296.9,45.4z M296.9,85.6c4,0,6.9-1.4,8.7-4c1.9-2.6,2.8-6.6,2.8-11.7
        s-0.9-9.1-2.8-11.7c-1.9-2.7-4.9-4.1-8.7-4.1c-4,0-7,1.4-8.8,4.1c-1.9,2.7-2.8,6.6-2.8,11.7s0.9,9,2.8,11.7
        C289.9,84.2,292.8,85.6,296.9,85.6z"/>
      <path fill="#FFFFFF" d="M329.3,93.6V46.1h6.7c1.1,0,2,0.2,2.5,0.7c0.5,0.5,0.8,1.1,0.9,2.3l0.7,5.8c1.7-2.9,3.7-5.2,6-6.9
        c2.3-1.7,4.9-2.5,7.7-2.5c2.4,0,4.3,0.6,5.8,1.6l-1.5,8.6c-0.1,0.6-0.3,0.9-0.6,1.1c-0.3,0.2-0.7,0.3-1.2,0.3
        c-0.5,0-1.1-0.1-1.9-0.3s-1.8-0.3-3.2-0.3c-2.4,0-4.4,0.7-6.1,1.9c-1.7,1.4-3.2,3.3-4.3,5.8v29.6h-11.5V93.6z"/>
      <path fill="#FFFFFF" d="M400.5,93.6c-1.5,0-2.5-0.7-2.9-2l-0.9-4.5c-1,1.1-2,2.2-3.1,3.1c-1.1,0.9-2.3,1.7-3.5,2.3s-2.6,1.1-4.1,1.5
        c-1.5,0.3-2.9,0.6-4.7,0.6c-2.6,0-5-0.6-7.1-1.6c-2.2-1-4-2.6-5.6-4.7c-1.6-2-2.7-4.5-3.6-7.6c-0.8-3.1-1.2-6.5-1.2-10.3
        c0-3.5,0.5-6.8,1.5-9.9c1-3.1,2.4-5.7,4.1-7.8c1.8-2.3,4-4,6.5-5.2c2.5-1.2,5.3-1.9,8.4-1.9c2.6,0,4.9,0.5,6.8,1.2
        c1.9,0.8,3.5,2,5.1,3.4V24.8h11.5v68.9H400.5z M385.3,85.2c2.4,0,4.4-0.5,6-1.5c1.7-1,3.3-2.4,4.8-4.2V58.2
        c-1.2-1.6-2.7-2.7-4.2-3.3c-1.5-0.7-3.2-1-4.9-1s-3.3,0.3-4.7,1c-1.4,0.7-2.6,1.6-3.5,2.9c-1,1.4-1.7,2.9-2.3,5
        c-0.6,2-0.8,4.4-0.8,7.1c0,2.7,0.2,5.1,0.7,7s1.1,3.5,1.9,4.8c0.8,1.2,1.8,2.2,3.1,2.6C382.5,85,383.8,85.2,385.3,85.2z"/>
    </g>
    <g style="enable-background: new;">
      <path fill="#FFFFFF" d="M436.7,94.4c-3.7,0-6.6-1-8.5-3.1c-2-2-2.9-5.1-2.9-9V53.6h-5.7c-0.5,0-0.9-0.1-1.2-0.5
        c-0.3-0.3-0.5-0.8-0.5-1.4v-3.3l7.7-1l1.9-14.5c0.1-0.5,0.2-0.8,0.6-1.1c0.3-0.3,0.8-0.5,1.2-0.5h4.2v16.3h13.4v6h-13.4v28.1
        c0,1.9,0.5,3.4,1.5,4.4c0.9,0.9,2.2,1.5,3.7,1.5c0.9,0,1.6-0.1,2.3-0.3c0.7-0.2,1.1-0.5,1.7-0.8c0.5-0.2,0.9-0.6,1.1-0.8
        c0.3-0.2,0.6-0.3,0.9-0.3c0.5,0,0.8,0.2,1.1,0.8l2.4,4c-1.5,1.4-3.2,2.4-5.1,3.2C440.9,94,438.8,94.4,436.7,94.4z"/>
      <path fill="#FFFFFF" d="M468,32c0,0.8-0.1,1.6-0.5,2.3s-0.8,1.4-1.2,1.8c-0.6,0.6-1.1,1-1.9,1.2c-0.7,0.3-1.5,0.5-2.3,0.5
        s-1.6-0.1-2.3-0.5c-0.7-0.3-1.4-0.7-1.8-1.2c-0.6-0.6-1-1.1-1.2-1.8c-0.3-0.7-0.5-1.5-0.5-2.3c0-0.8,0.1-1.6,0.5-2.3
        c0.3-0.7,0.7-1.4,1.2-1.9c0.6-0.6,1.1-1,1.8-1.2c0.7-0.3,1.5-0.5,2.3-0.5s1.6,0.1,2.3,0.5c0.7,0.3,1.4,0.7,1.9,1.2
        c0.6,0.6,1,1.1,1.2,1.9C467.9,30.4,468,31.2,468,32z M466.2,46.8v47h-8.3v-47H466.2z"/>
      <path fill="#FFFFFF" d="M480.7,109.5V46.8h4.9c1.1,0,1.9,0.6,2.3,1.7l0.7,5.6c2-2.5,4.3-4.4,6.9-5.9c2.6-1.5,5.6-2.3,9-2.3
        c2.7,0,5.1,0.6,7.4,1.6c2.3,1,4.1,2.6,5.6,4.5c1.6,2,2.7,4.5,3.5,7.5c0.8,2.9,1.2,6.5,1.2,10.3c0,3.4-0.5,6.7-1.4,9.6
        c-0.9,2.9-2.3,5.6-4,7.7c-1.7,2.2-3.9,3.9-6.4,5.1c-2.5,1.2-5.3,1.9-8.5,1.9c-2.9,0-5.3-0.5-7.5-1.5c-2-0.9-3.9-2.3-5.4-4.1v20.8
        h-8.3V109.5z M501.6,52.6c-2.7,0-5,0.6-7,1.8c-2,1.2-3.9,2.9-5.6,5.2v22.7c1.5,2,3.2,3.5,5,4.3c1.8,0.8,3.9,1.2,6,1.2
        c4.3,0,7.7-1.6,10.1-4.7c2.4-3.2,3.5-7.6,3.5-13.4c0-3.1-0.2-5.7-0.8-7.8s-1.4-4-2.4-5.4c-1-1.5-2.3-2.4-3.7-3.1
        C505.2,52.9,503.5,52.6,501.6,52.6z"/>
      <path fill="#FFFFFF" d="M558.7,54.5c-0.3,0.7-0.9,1-1.7,1c-0.5,0-1-0.2-1.6-0.5c-0.6-0.3-1.4-0.7-2.2-1.1s-1.8-0.8-3.1-1.1
        c-1.1-0.3-2.6-0.6-4.2-0.6c-1.4,0-2.6,0.2-3.7,0.6s-2,0.8-2.8,1.5c-0.8,0.6-1.4,1.4-1.8,2.2S537,58.1,537,59c0,1.2,0.3,2.2,1,3.1
        c0.7,0.8,1.6,1.5,2.7,2c1.1,0.6,2.5,1.1,3.9,1.6s2.9,0.9,4.4,1.5c1.5,0.6,3.1,1,4.4,1.7c1.5,0.6,2.7,1.4,3.9,2.3
        c1.1,0.9,2,2,2.7,3.4s1,2.9,1,4.9c0,2.2-0.3,4.2-1.1,6c-0.8,1.8-1.9,3.4-3.4,4.8s-3.4,2.4-5.6,3.2c-2.2,0.8-4.8,1.1-7.6,1.1
        c-3.3,0-6.2-0.6-8.8-1.6s-4.9-2.4-6.8-4.1l1.9-3.2c0.2-0.5,0.6-0.7,0.9-0.9c0.3-0.2,0.8-0.3,1.4-0.3c0.6,0,1.1,0.2,1.8,0.7
        c0.6,0.5,1.4,0.9,2.3,1.5s1.9,1,3.2,1.5c1.2,0.5,2.8,0.7,4.7,0.7c1.6,0,3.1-0.2,4.2-0.7c1.1-0.5,2.2-1,3.1-1.7
        c0.8-0.7,1.4-1.5,1.8-2.5c0.3-0.9,0.6-1.9,0.6-2.9c0-1.2-0.3-2.4-1-3.2s-1.6-1.6-2.7-2.2c-1.1-0.6-2.5-1.1-4-1.6
        c-1.5-0.5-2.9-0.9-4.5-1.4c-1.5-0.5-3.1-1-4.5-1.7c-1.5-0.7-2.7-1.5-4-2.4c-1.1-0.9-2-2.2-2.7-3.5c-0.7-1.4-1-3.1-1-5.1
        c0-1.8,0.3-3.5,1.1-5.2c0.8-1.7,1.8-3.1,3.3-4.3s3.2-2.3,5.2-2.9c2-0.8,4.4-1.1,7-1.1c3.1,0,5.9,0.5,8.3,1.5s4.5,2.3,6.4,4
        L558.7,54.5z"/>
    </g>
  </g>
</svg>
