<svg xmlns="http://www.w3.org/2000/svg" viewBox="0 0 225.2 167.8">
<g>
	<polygon style="opacity:0.29;" fill="#D6F5EB" points="85.9,11.1 77.5,47.8 113.9,131.2 124.1,68.8 108.1,28.7 	"/>
	<polygon style="opacity:0.29;" fill="#D6F5EB" points="168,11.3 159.6,48 195.9,131.3 209.7,48.4 190.2,28.9 	"/>
	<g>
		<g>
			<path fill="#57BD91" d="M182.9,157.3c-0.1,0.1-0.2,0.2-0.3,0.2c-7.8,6.9-15.8,7-24.4,0.4c-6.2-4.7-9.6-10.9-12.3-17.1
				c-7.5-17.2-14.1-34.7-21.6-51.9c-0.5-1.3-1.1-2.5-1.6-3.8c0,0,0,0,0,0c-8.2-19.4-14.8-39.3-25.3-58.1c-2.4-4.4-5.2-8.5-9-12.2
				c-1.7-1.7-2.7-2.7-2.7-3.5c0,0,0,0,0,0c-0.1-1,1.4-1.6,4.5-2.8c8.9-3.4,18.8-4.6,31.4-3.4c19,0.8,29.9,11.6,36.3,26.2
				c8.4,19.4,16.2,38.9,24.3,58.4c1.2,3,5.4,12.9,10.4,24.3C199.3,129.2,195.7,145.9,182.9,157.3z"/>
			<path fill="#57BD91" d="M112.8,138.7c-1.9,6.8-5.8,13.1-11.7,18.3c-0.1,0.1-0.2,0.2-0.3,0.2c-7.8,6.9-15.8,7-24.4,0.4
				c-6.2-4.7-9.6-10.9-12.3-17.1c-7.5-17.2-14.1-34.7-21.6-51.9c-8.9-20.6-15.7-41.8-26.9-61.8c-2.4-4.4-5.2-8.5-9-12.2
				c-3.9-3.9-3.8-4.1,1.9-6.3C17.5,4.9,27.4,3.8,39.9,5c19,0.8,29.9,11.6,36.3,26.2c2.1,4.8,4.1,9.5,6.1,14.3
				c6.1,14.7,12,29.4,18.2,44.1c1.2,3,5.4,12.9,10.4,24.3C114.5,122,115.1,130.7,112.8,138.7z"/>
		</g>
	</g>
	<path fill="#FFD800" d="M168.2,12.7c-0.6-0.5-0.5-1.5,0.2-1.9c4.5-2.6,17.6-8.3,30.7-4.9c16.4,4.3,22.3,19.2,20.6,30.3
		c-1.8,11-12.1,18-21.1,17c-9-0.9-15.9-6.8-19-16.6C176.9,28,172.2,16,168.2,12.7z"/>
</g>
</svg>
